<?xml version="1.0" encoding="utf-8"?>
<!-- Generator: Adobe Illustrator 28.0.0, SVG Export Plug-In . SVG Version: 6.00 Build 0)  -->
<svg version="1.1" id="Layer_1" xmlns="http://www.w3.org/2000/svg" xmlns:xlink="http://www.w3.org/1999/xlink" x="0px" y="0px"
	 viewBox="0 0 32 32" style="enable-background:new 0 0 32 32;" xml:space="preserve">
<style type="text/css">
	.st0{fill:#F4A67C;}
</style>
<path class="st0" d="M2.76,19.23c0,0,0.92-2.16,2.66-4.84c1.74-2.67,2.91-4.05,2.91-4.05s3.19,1.34,2.98,2.32s-6.12,8.27-6.12,9.53
	c2.37-2.22,5.45-4.74,7.94-6.85c2.49-2.11,6.98-5.31,8.97-6.62C24.1,7.4,28.94,4.33,32,4.45c-4.02,1.8-8.3,4.05-16.52,11.76
	c-4.44,4.24-5.31,6.42-4.19,8.03l-0.39,0.17c0,0-1.09-0.97-0.34-2.87c0.75-1.89,3.33-4.54,3.33-4.54s-1.87,1.48-5.76,5.71
	C5.98,24.94,5.98,25.25,5,25.19c-0.98-0.06-1.26-0.84-1.26-0.84l-0.5,1.25c0,0,0.5,0.7,0.5,0.89c0,0.2-0.53,1.11-1.43,1.14
	s-1.95-1.28-2.13-1.48c-0.19-0.2,0-0.64,0-0.64l0.65,0.17c0,0-0.59-0.86-0.25-1.45c0.34-0.58,4.72-7.94,4.72-7.94l-0.17-0.14
	L2.76,19.23z"/>
</svg>
